<?xml version="1.0" encoding="utf-8"?>
<!-- Generator: Adobe Illustrator 20.0.0, SVG Export Plug-In . SVG Version: 6.00 Build 0)  -->
<svg version="1.1" id="Layer_1" xmlns="http://www.w3.org/2000/svg" xmlns:xlink="http://www.w3.org/1999/xlink" x="0px" y="0px"
	 viewBox="0 0 1000 1000" style="enable-background:new 0 0 1000 1000;" xml:space="preserve">
<style type="text/css">
	.st0{fill:#4E4E4E;}
</style>
<g>
	<path class="st0" d="M671.3,799.9c-1-18.2-1.5-538.3-1.5-538.3H577c-0.3,0.2-1.8,0.5-1.8,0.5c-0.8,1-1.7,2.3-2.2,3.8
		c-2.3,4-3.3,9-5.7,13c-32.8-20.5-91.8-14.5-92.8-14.3c-44.5,7.7-83.7,34.8-103.8,60.3C326,381.4,318.5,466.4,352,536.6
		c28.5,59.8,79.3,94.3,139.5,94.7c5.2,0,10.3-0.3,15.7-0.8c8.3-0.8,61.7-14.5,61.7-14.5l-0.5,106c-0.3,96,0,169.7,56.7,196.7
		c19.3-20.3,52-57,70.3-78.8c-2.2-3-4.7-5.8-7.5-8.8C680.5,822.9,672,813.6,671.3,799.9z M569.5,504.2l-5.2,4.8
		c-17.3,17-43.3,27.5-67.7,27.5c-49.7,0-83-35-83-87.2c0-52.8,33.3-88.3,83-88.3c28.3,0,59.7,14.2,72.8,28.2L569.5,504.2
		L569.5,504.2z"/>
	<path class="st0" d="M749.3,184.1c0.5,1.8,1.2,3.7,1.3,4.3c0,0,8.2,24.8,38.5,24.8c23,0,41.7-18.7,41.7-41.8
		c0-23-18.7-41.8-41.7-41.8c-19.3,0-35.5,13.3-40.3,31.2c-24.7-0.3-34.3-9-45.8-16.8c-11.7-8-22.5-15.5-38.7-15.5h-1.8
		c-24.8,0.8-39.8,27.7-51.8,49.2c-8.2,14.7-16,28.5-24.5,28.5c-9.8,0-20.5-26.2-31-51.5c-3.7-9-7.3-17.8-11.3-26.8
		c-11.2-24.8-20.5-38.2-30.3-43.3c-0.8-0.5-1-0.5-2.3-1c-3.7-1.5-8-2.3-12.3-2.3c-4.2,0-8.2,0.7-11.5,2c-14.3,4.5-25.8,27-35.2,48.3
		c-2.8,5.5-5,11.3-7.3,17l-2.5,6.2c-10.3,25.3-18.5,52.2-31,51.7c-8.3-0.3-16.2-13.8-24.3-28.7c-12-21.5-27-48.3-53.5-49.2
		c-16,0-27,7.5-38.7,15.5s-23.8,16.3-42.5,16.8c-4.7-17.8-20.8-31.2-40.3-31.2c-23,0-41.7,18.7-41.7,41.7v0.2
		c0,23,18.7,41.7,41.7,41.7c17.3,0,32.2-10.5,38.5-25.5c0,0,0.7-1.5,1-2.5c0.2-0.5,0.3-1,0.5-1.5l0.2,0.2c2.7,0.5,5.5,0.8,8.5,0.8
		c16.5,0,28.8-9,40.5-17.5c9.8-7.2,19.2-14,29.8-14c1.2,0,2.3,0,3.5,0.2c15.3,2.2,22.7,17,29.8,31.5c10.8,21.8,26.2,46.8,49,46.8
		c27.7,0,44.2-44.7,57.7-80.7c7.2-19.3,11-34.3,17.8-39c3.5-3.5,7.3-3.3,10-3.3c4.5,0,8.5,1.7,10.8,4.7c4.8,5.8,10,18.7,17,37.7
		c13.3,35.8,30,80.5,57.7,80.7c22.8,0,38.2-25,49-46.8c7.2-14.3,14.5-29.3,29.8-31.5c1.2-0.2,2.3-0.2,3.7-0.2
		c10.5,0,19.8,6.8,29.8,14c11.8,8.5,24,17.3,40.5,17.5C739.5,184.6,745.2,184.4,749.3,184.1z"/>
	<path class="st0" d="M274.2,261.6l-101,0.3c0,17.2,0.5,518.3-0.7,536.3c-0.8,13.7-9.2,22.8-16.7,31c-2.7,3-5.3,5.8-7.5,8.8
		l70.3,80.7c62.6-58.1,56.4-89.1,56.4-207.8C275,692.2,274.2,261.6,274.2,261.6z"/>
	<path class="st0" d="M844.2,621.1c-7.3-8.2-16.5-20.8-17.5-34.5c-1.8-30-0.5-324.8-0.5-324.8l-96.8-0.5c0,0-2.5,1.5-2.5,6.7
		c0,1.7-0.2,216-0.2,224.3c0,101.7-5,188.2,54.7,216.7c19.3-20.3,52-57,70.3-78.8C849.3,626.9,846.8,624.1,844.2,621.1z"/>
</g>
</svg>
