<svg id="Layer_1" data-name="Layer 1" xmlns="http://www.w3.org/2000/svg" viewBox="0 0 800 500"><defs><style>.cls-1,.cls-2{fill:none;stroke:#414042;stroke-miterlimit:10;}.cls-1{stroke-width:2.5px;}.cls-2{stroke-width:0.77px;}</style></defs><title>speedometer</title><path class="cls-1" d="M615.87,345.49a233.44,233.44,0,0,0,18.41-91.19C634.28,124.91,529.39,20,400,20S165.72,124.91,165.72,254.3a233.44,233.44,0,0,0,18.41,91.19"/><line class="cls-2" x1="191.82" y1="342.15" x2="212.01" y2="333.61"/><line class="cls-2" x1="182.24" y1="314.52" x2="203.36" y2="308.64"/><line class="cls-2" x1="176.22" y1="285.39" x2="197.93" y2="282.32"/><line class="cls-2" x1="174.03" y1="255.06" x2="195.95" y2="254.87"/><line class="cls-2" x1="175.9" y1="224.03" x2="197.65" y2="226.8"/><line class="cls-2" x1="181.78" y1="194.22" x2="202.97" y2="199.85"/><line class="cls-2" x1="191.38" y1="165.93" x2="211.64" y2="174.3"/><line class="cls-2" x1="204.43" y1="139.45" x2="223.44" y2="150.38"/><line class="cls-2" x1="220.66" y1="115.07" x2="238.11" y2="128.34"/><line class="cls-2" x1="239.8" y1="93.04" x2="255.41" y2="108.44"/><line class="cls-2" x1="261.57" y1="73.65" x2="275.08" y2="90.91"/><line class="cls-2" x1="285.7" y1="57.17" x2="296.88" y2="76.02"/><line class="cls-2" x1="311.93" y1="43.86" x2="320.56" y2="64.02"/><line class="cls-2" x1="339.99" y1="34.02" x2="345.86" y2="55.14"/><line class="cls-2" x1="369.58" y1="27.91" x2="372.56" y2="49.63"/><line class="cls-2" x1="400.42" y1="25.81" x2="400.42" y2="47.73"/><line class="cls-2" x1="431.26" y1="27.91" x2="428.28" y2="49.63"/><line class="cls-2" x1="460.86" y1="34.02" x2="454.98" y2="55.14"/><line class="cls-2" x1="488.91" y1="43.86" x2="480.29" y2="64.02"/><line class="cls-2" x1="515.14" y1="57.17" x2="503.96" y2="76.02"/><line class="cls-2" x1="539.28" y1="73.65" x2="525.76" y2="90.91"/><line class="cls-2" x1="561.05" y1="93.04" x2="545.44" y2="108.44"/><line class="cls-2" x1="580.18" y1="115.07" x2="562.73" y2="128.34"/><line class="cls-2" x1="596.41" y1="139.45" x2="577.4" y2="150.38"/><line class="cls-2" x1="609.46" y1="165.93" x2="589.2" y2="174.3"/><line class="cls-2" x1="619.07" y1="194.22" x2="597.88" y2="199.85"/><line class="cls-2" x1="624.94" y1="224.03" x2="603.19" y2="226.8"/><line class="cls-2" x1="626.82" y1="255.06" x2="604.89" y2="254.87"/><line class="cls-2" x1="624.62" y1="285.39" x2="602.91" y2="282.32"/><line class="cls-2" x1="618.6" y1="314.52" x2="597.48" y2="308.64"/><line class="cls-2" x1="609.03" y1="342.15" x2="588.84" y2="333.61"/></svg>