<?xml version="1.0" encoding="utf-8"?>
<!-- Generator: Adobe Illustrator 22.1.0, SVG Export Plug-In . SVG Version: 6.00 Build 0)  -->
<svg version="1.1" id="Layer_1" xmlns="http://www.w3.org/2000/svg" xmlns:xlink="http://www.w3.org/1999/xlink" x="0px" y="0px"
	 viewBox="0 0 1200 100" style="enable-background:new 0 0 1200 100;" xml:space="preserve">
<style type="text/css">
	.st0{display:none;fill:#A7DEEC;}
	.st1{fill:#A7DEEC;}
	.st2{display:none;opacity:0.75;fill:#00BEF3;stroke:#000000;stroke-width:2;stroke-miterlimit:10;}
	.st3{opacity:0.75;fill:#00BEF3;stroke:#000000;stroke-width:2;stroke-miterlimit:10;}
</style>
<path class="st0" d="M563,90c0,0,37.7,0,66.3,0c28.7,0,289.3-20,341-20V30c-51.7,0-312.3-20-341-20c-28.7,0-66.3,0-66.3,0"/>
<path class="st0" d="M640,10c0,0-37.7,0-66.3,0c-28.7,0-289.3,20-341,20v40c51.7,0,312.3,20,341,20c28.7,0,66.3,0,66.3,0"/>
<circle class="st1" cx="640" cy="50" r="40"/>
<circle class="st0" cx="563" cy="50" r="40"/>
<circle class="st2" cx="563" cy="50" r="30"/>
<circle class="st3" cx="640" cy="50" r="30"/>
</svg>
